<svg xmlns="http://www.w3.org/2000/svg" viewBox="0 0 16.28 20.59"><defs><style>.cls-1{fill:#e11f26;}</style></defs><title>delete</title><g id="Layer_2" data-name="Layer 2"><g id="Layer_1-2" data-name="Layer 1"><path class="cls-1" d="M14.87,2.42H12.12V.64A.64.64,0,0,0,11.47,0a.1.1,0,0,0-.07,0l0,0H4.8a.63.63,0,0,0-.64.64V2.42H1.4A1.39,1.39,0,0,0,0,3.83v2.3H1.22V19.2a1.37,1.37,0,0,0,1.39,1.39H13.67a1.38,1.38,0,0,0,1.4-1.39V6.13h1.21V3.83a1.39,1.39,0,0,0-1.4-1.4ZM5.44,1.28h5.39V2.42H5.44ZM13.78,19.2c0,.08,0,.12-.12.12H2.61c-.08,0-.12,0-.12-.12V6.13H13.78ZM15,4.85H1.29v-1c0-.08,0-.13.12-.13H14.87c.08,0,.12,0,.12.13Zm0,0"/><rect class="cls-1" x="10.48" y="7.62" width="1.29" height="10.56"/><rect class="cls-1" x="7.51" y="7.62" width="1.29" height="10.56"/><rect class="cls-1" x="4.54" y="7.62" width="1.29" height="10.56"/></g></g></svg>