<svg xmlns="http://www.w3.org/2000/svg" viewBox="0 0 19.2 19.2"><defs><style>.cls-1{fill:#21af86;}</style></defs><title>edit</title><g id="Layer_2" data-name="Layer 2"><g id="Layer_1-2" data-name="Layer 1"><path class="cls-1" d="M18.29.92a3.13,3.13,0,0,0-4.42,0L1.33,13.45l0,0,0,0,0,.08v0h0L0,18.77a.33.33,0,0,0,0,.07H0A.33.33,0,0,0,0,19v0a.32.32,0,0,0,.07.1.32.32,0,0,0,.11.08l.13,0H.43L5.59,18h.06l.07,0,0,0h0L18.29,5.34a3.13,3.13,0,0,0,0-4.42Zm-.49.49A2.44,2.44,0,0,1,18,4.58l-3.4-3.4a2.44,2.44,0,0,1,3.18.23ZM16.07,6.57,12.63,3.13l.49-.49,3.44,3.44ZM1.72,17.48a.35.35,0,0,0-.49,0L1,17.74,1.86,14l1.54-.17-.2,1.78a.21.21,0,0,1,0,.08.17.17,0,0,0,0,0l0,.06,0,.06,0,0,.06,0,0,0,.07,0h.12l1.78-.2-.17,1.54-3.73.89L1.72,18a.35.35,0,0,0,0-.49Zm4.36-1.9L13.86,7.8a.35.35,0,1,0-.49-.49L5.59,15.08l-1.66.19.18-1.66L11.9,5.83a.35.35,0,0,0-.49-.49L3.63,13.12l-1.11.12,9.62-9.62,3.44,3.44L6,16.68Zm11-10L13.62,2.14l.49-.49,3.44,3.44Zm0,0"/></g></g></svg>