<svg xmlns="http://www.w3.org/2000/svg" viewBox="0 0 23.72 25.34"><defs><style>.cls-1{fill:#425ba9;}</style></defs><title>view</title><g id="Layer_2" data-name="Layer 2"><g id="Layer_1-2" data-name="Layer 1"><path class="cls-1" d="M23.31,11.48a.6.6,0,0,0-1,.74.71.71,0,0,1,0,.88,13.28,13.28,0,0,1-5.55,4.18,6.76,6.76,0,0,0,0-9.23,13.27,13.27,0,0,1,3.46,2l.39.33a.6.6,0,1,0,.8-.91l-.42-.36A14.52,14.52,0,0,0,.41,11.48a1.92,1.92,0,0,0,0,2.37,14.52,14.52,0,0,0,22.91,0A1.92,1.92,0,0,0,23.31,11.48Zm-5.88,1.18a5.58,5.58,0,0,1-5.56,5.57h0a5.57,5.57,0,0,1,0-11.14h0A5.58,5.58,0,0,1,17.43,12.67Zm-16.07.44a.71.71,0,0,1,0-.88A13.28,13.28,0,0,1,6.91,8a6.76,6.76,0,0,0,0,9.24A13.28,13.28,0,0,1,1.36,13.11Z"/><path class="cls-1" d="M9.3,12.67a2.57,2.57,0,1,0,2.57-2.57A2.57,2.57,0,0,0,9.3,12.67Zm3.92,0a1.36,1.36,0,1,1-1.36-1.36A1.36,1.36,0,0,1,13.22,12.67Z"/><path class="cls-1" d="M11.86,3.48a.6.6,0,0,0,.6-.6V.6a.6.6,0,0,0-1.21,0V2.87A.6.6,0,0,0,11.86,3.48Z"/><path class="cls-1" d="M11.86,21.86a.6.6,0,0,0-.6.6v2.27a.6.6,0,1,0,1.21,0V22.46A.6.6,0,0,0,11.86,21.86Z"/><path class="cls-1" d="M19.26,5.87a.6.6,0,0,0,.43-.18l1.13-1.13A.6.6,0,1,0,20,3.71L18.84,4.84a.6.6,0,0,0,.43,1Z"/><path class="cls-1" d="M4,19.64,2.9,20.77a.6.6,0,1,0,.85.86L4.89,20.5A.6.6,0,0,0,4,19.64Z"/><path class="cls-1" d="M4,5.69a.6.6,0,0,0,.85-.86L3.76,3.71a.6.6,0,0,0-.85.86Z"/><path class="cls-1" d="M19.69,19.64a.6.6,0,0,0-.86.86L20,21.63a.6.6,0,1,0,.85-.86Z"/></g></g></svg>