<svg height="496pt" viewBox="0 0 496 496" width="496pt" xmlns="http://www.w3.org/2000/svg" xmlns:xlink="http://www.w3.org/1999/xlink"><linearGradient id="a" gradientUnits="userSpaceOnUse" x1="248" x2="248" y1="496" y2="0"><stop offset="0" stop-color="#9f2fff"/><stop offset="1" stop-color="#0bb1d3"/></linearGradient><path d="m160 304h48v-112h-48zm16-96h16v80h-16zm-80 96h48v-48h-48zm16-32h16v16h-16zm-16-32h48v-48h-48zm16-32h16v16h-16zm-80 96h48v-48h-48zm16-32h16v16h-16zm-16-32h48v-48h-48zm16-32h16v16h-16zm48-32h48v-48h-48zm16-32h16v16h-16zm48 32h48v-48h-48zm16-32h16v16h-16zm-144 32h48v-48h-48zm16-32h16v16h-16zm-16-32h176v-80h-176zm16-64h144v48h-144zm416 112h-224v-136c0-13.230469-10.769531-24-24-24h-192c-13.230469 0-24 10.769531-24 24v288c0 13.230469 10.769531 24 24 24h104v128h144.808594c3.710937 18.230469 19.878906 32 39.191406 32s35.480469-13.769531 39.191406-32h144.808594v-272h-32zm-16 16v240h-128v-240zm-144 0v240h-128v-80h112v-16h-49.472656c.898437-2.511719 1.472656-5.183594 1.472656-8v-8h48v-16h-48v-16h48v-16h-48v-16h48v-16h-48v-16h48v-16h-48v-16zm-288 136v-288c0-4.414062 3.59375-8 8-8h192c4.40625 0 8 3.585938 8 8v288c0 4.414062-3.59375 8-8 8h-192c-4.40625 0-8-3.585938-8-8zm464-104v240h-144v8c0 13.230469-10.769531 24-24 24s-24-10.769531-24-24v-8h-144v-112h16v96h304v-224zm-80 80c0-8.824219-7.175781-16-16-16-17.648438 0-32-14.351562-32-32 0-14.871094 10.238281-27.289062 24-30.863281v-17.136719h16v17.136719c13.761719 3.574219 24 15.992187 24 30.863281h-16c0-8.824219-7.175781-16-16-16s-16 7.175781-16 16 7.175781 16 16 16c17.648438 0 32 14.351562 32 32 0 14.871094-10.238281 27.289062-24 30.863281v17.136719h-16v-17.136719c-13.761719-3.574219-24-15.992187-24-30.863281h16c0 8.824219 7.175781 16 16 16s16-7.175781 16-16zm32 80h-96v-16h96zm-96 32v-16h96v16zm-144-48h96v16h-96zm0 32h96v16h-96zm0 0" fill="url(#a)"/></svg>