<?xml version="1.0"?>
<svg xmlns="http://www.w3.org/2000/svg" xmlns:xlink="http://www.w3.org/1999/xlink" xmlns:svgjs="http://svgjs.com/svgjs" version="1.1" width="512" height="512" x="0" y="0" viewBox="0 0 512 512" style="enable-background:new 0 0 512 512" xml:space="preserve" class=""><g><path xmlns="http://www.w3.org/2000/svg" d="m111.03 139.88a19.793 19.793 0 0 0 -17.26 10.11l-41.99 74.84.24.3a19.761 19.761 0 0 0 -7.71 15.64v125.27a19.858 19.858 0 0 0 19.8 19.8h30a19.858 19.858 0 0 1 -19.8-19.8v-125.27a19.88 19.88 0 0 1 19.8-19.8h-10.164l39.824-70.98a19.793 19.793 0 0 1 17.26-10.11z" fill="#837dd1" data-original="#d4e1f4" style=""/><path xmlns="http://www.w3.org/2000/svg" d="m150.24 139.88h30l18.89-123.88h-30z" fill="#837dd1" data-original="#d4e1f4" style=""/><g xmlns="http://www.w3.org/2000/svg" fill="#1ae5be"><path d="m211.061 380.155a6 6 0 1 0 0-12h-20.643a6 6 0 0 0 0 12z" fill="#837dd1" data-original="#1ae5be" style="" class=""/><path d="m330.751 368.155h-102.137a6 6 0 0 0 0 12h102.137a6 6 0 0 0 0-12z" fill="#837dd1" data-original="#1ae5be" style="" class=""/><path d="m175.249 402.43a6 6 0 0 0 6 6h119.961a6 6 0 0 0 0-12h-119.961a6 6 0 0 0 -6 6z" fill="#837dd1" data-original="#1ae5be" style="" class=""/><path d="m337.169 396.43h-18.406a6 6 0 0 0 0 12h18.406a6 6 0 0 0 0-12z" fill="#837dd1" data-original="#1ae5be" style="" class=""/><path d="m308.748 435.721a6 6 0 0 0 -6-6h-139.836a6 6 0 0 0 0 12h139.836a6 6 0 0 0 6-6z" fill="#837dd1" data-original="#1ae5be" style="" class=""/><path d="m349.088 429.721h-28.788a6 6 0 1 0 0 12h28.787a6 6 0 0 0 0-12z" fill="#837dd1" data-original="#1ae5be" style="" class=""/><path d="m153.744 458a6 6 0 0 0 0 12h83.286a6 6 0 0 0 0-12z" fill="#837dd1" data-original="#1ae5be" style="" class=""/><path d="m254.583 470h103.673a6 6 0 0 0 0-12h-103.673a6 6 0 1 0 0 12z" fill="#837dd1" data-original="#1ae5be" style="" class=""/></g><path xmlns="http://www.w3.org/2000/svg" d="m64.11 391.841h73.4v-12h-73.4a13.812 13.812 0 0 1 -13.8-13.8v-125.274a13.812 13.812 0 0 1 13.8-13.8h383.78a13.812 13.812 0 0 1 13.8 13.8v125.278a13.812 13.812 0 0 1 -13.8 13.8h-73.4v12h73.4a25.825 25.825 0 0 0 25.8-25.8v-125.278a25.767 25.767 0 0 0 -10.2-20.532l-41.625-73.294a25.8 25.8 0 0 0 -22.431-13.057h-12.141l-11.071-74.759a24.288 24.288 0 0 0 -24-21.611l-3.422-22.414a6 6 0 0 0 -5.931-5.1h-173.737a6 6 0 0 0 -5.931 5.1l-3.419 22.419a24.288 24.288 0 0 0 -24 21.612l-11.071 74.758h-13.68a25.827 25.827 0 0 0 -22.5 13.174l-41.988 74.837a25.723 25.723 0 0 0 -8.233 18.869v125.276a25.825 25.825 0 0 0 25.8 25.796zm300.19-331.31c.008.08.019.16.031.24l10.827 73.113h-8.247l-12.841-84.2a12.308 12.308 0 0 1 10.23 10.847zm-216.639.24c.012-.08.023-.16.031-.24a12.308 12.308 0 0 1 10.23-10.849l-12.841 84.2h-8.248zm-48.661 92.159a13.813 13.813 0 0 1 12.033-7.046h69.707a6 6 0 0 0 0-12h-23.516l17.062-111.884h163.428l17.062 111.884h-134.036a6 6 0 0 0 0 12h178.689a13.8 13.8 0 0 1 12 6.983l35.269 62.1h-382.51z" fill="#0635c9" data-original="#0635c9" style="" class=""/><path xmlns="http://www.w3.org/2000/svg" d="m407.5 258.5a16.543 16.543 0 1 0 -16.543 16.543 16.562 16.562 0 0 0 16.543-16.543zm-21.086 0a4.543 4.543 0 1 1 4.543 4.543 4.549 4.549 0 0 1 -4.543-4.543z" fill="#0635c9" data-original="#0635c9" style="" class=""/><path xmlns="http://www.w3.org/2000/svg" d="m360.622 258.5a16.544 16.544 0 1 0 -16.544 16.543 16.563 16.563 0 0 0 16.544-16.543zm-21.087 0a4.544 4.544 0 1 1 4.543 4.543 4.549 4.549 0 0 1 -4.543-4.543z" fill="#0635c9" data-original="#0635c9" style="" class=""/><path xmlns="http://www.w3.org/2000/svg" d="m367.023 350.123v12h34.477a6 6 0 0 0 6-6v-46.585a6 6 0 0 0 -6-6h-291a6 6 0 0 0 -6 6v46.585a6 6 0 0 0 6 6h34.477v-12h-28.477v-34.585h279v34.585z" fill="#0635c9" data-original="#0635c9" style="" class=""/><path xmlns="http://www.w3.org/2000/svg" d="m81.96 247.177a6 6 0 0 0 0 12h5.306a6 6 0 0 0 0-12z" fill="#0635c9" data-original="#0635c9" style="" class=""/><path xmlns="http://www.w3.org/2000/svg" d="m258.589 286.683a6 6 0 0 0 6-6v-27.506a6 6 0 0 0 -6-6h-153.789a6 6 0 0 0 -6 6v27.506a6 6 0 0 0 6 6zm-147.789-27.505h141.789v15.5h-141.789z" fill="#0635c9" data-original="#0635c9" style="" class=""/><path xmlns="http://www.w3.org/2000/svg" d="m145.163 328.813-31.563 165.969a5.982 5.982 0 0 0 5.875 7.218h273.05a5.982 5.982 0 0 0 5.876-7.218l-31.564-165.969a6 6 0 0 0 -5.894-4.878h-33.733a6 6 0 0 0 0 12h28.767l29.3 154.065h-258.554l29.3-154.065h131.187a6 6 0 0 0 0-12h-136.153a6 6 0 0 0 -5.894 4.878z" fill="#837dd1" data-original="#1ae5be" style="" class=""/></g></svg>
